<svg  width="0" height="0" class="hidden">
	<symbol xmlns="http://www.w3.org/2000/svg" xmlns:xlink="http://www.w3.org/1999/xlink" id="icon-point-left" viewBox="0 0 32 32">
	<path d="M19 30h-5c-1.654 0-3-1.346-3-3 0-0.535 0.14-1.037 0.386-1.472-0.833-0.534-1.386-1.467-1.386-2.528 0-0.768 0.29-1.469 0.766-2-0.476-0.531-0.766-1.232-0.766-2 0-0.35 0.060-0.687 0.171-1h-7.171c-1.654 0-3-1.346-3-3s1.346-3 3-3h12.334l-2.932-5.501c-0.262-0.454-0.401-0.973-0.401-1.499 0-1.654 1.346-3 3-3 0.824 0 1.592 0.327 2.163 0.921 0.007 0.008 0.015 0.015 0.022 0.023l6.815 7.474v-1.419c0-0.552 0.448-1 1-1h6c0.552 0 1 0.448 1 1v20c0 0.552-0.448 1-1 1h-6c-0.552 0-1-0.448-1-1v-1.382l-4.553 2.276c-0.139 0.069-0.292 0.106-0.447 0.106zM27 28c0.552 0 1-0.448 1-1s-0.448-1-1-1-1 0.448-1 1 0.448 1 1 1zM18.764 28l5.236-2.618v-11.995l-8.287-9.088c-0.19-0.193-0.443-0.299-0.713-0.299-0.551 0-1 0.449-1 1 0 0.171 0.041 0.332 0.122 0.479 0.010 0.017 0.020 0.033 0.029 0.051l3.732 7c0.165 0.31 0.156 0.684-0.025 0.985s-0.506 0.485-0.857 0.485h-14c-0.551 0-1 0.449-1 1s0.449 1 1 1h10c0.552 0 1 0.448 1 1s-0.448 1-1 1c-0.551 0-1 0.449-1 1s0.449 1 1 1c0.552 0 1 0.448 1 1s-0.448 1-1 1c-0.551 0-1 0.449-1 1s0.449 1 1 1h1c0.552 0 1 0.448 1 1s-0.448 1-1 1c-0.551 0-1 0.449-1 1s0.449 1 1 1h4.764z"></path>
	</symbol>
	<symbol id="icon-book"  xmlns="http://www.w3.org/2000/svg" xmlns:xlink="http://www.w3.org/1999/xlink" viewBox="0 0 256 256">
	<path d="M224,48H160a40,40,0,0,0-32,16A40,40,0,0,0,96,48H32A16,16,0,0,0,16,64V192a16,16,0,0,0,16,16H96a24,24,0,0,1,24,24,8,8,0,0,0,16,0,24,24,0,0,1,24-24h64a16,16,0,0,0,16-16V64A16,16,0,0,0,224,48ZM96,192H32V64H96a24,24,0,0,1,24,24V200A39.81,39.81,0,0,0,96,192Zm128,0H160a39.81,39.81,0,0,0-24,8V88a24,24,0,0,1,24-24h64ZM160,88h40a8,8,0,0,1,0,16H160a8,8,0,0,1,0-16Zm48,40a8,8,0,0,1-8,8H160a8,8,0,0,1,0-16h40A8,8,0,0,1,208,128Zm0,32a8,8,0,0,1-8,8H160a8,8,0,0,1,0-16h40A8,8,0,0,1,208,160Z"></path>
	</symbol>
	<symbol fill="none" xmlns="http://www.w3.org/2000/svg" viewBox="0 0 24 24" id="cms">
	<path d="M18.763 13.7944L20.029 16.0222C19.8786 16.3163 19.7105 16.6051 19.5244 16.8873C19.3383 17.1695 19.1391 17.4378 18.9281 17.6919L16.4377 17.4142C15.7715 17.9608 15.0027 18.3869 14.1645 18.6592L13.0002 20.945C12.6719 20.9813 12.3382 21 12.0002 21C11.6622 21 11.3285 20.9813 11.0002 20.945L9.83293 18.6582C8.99428 18.3854 8.22514 17.9585 7.5589 17.4111L5.05407 17.6915C4.84303 17.4374 4.64381 17.1691 4.45774 16.8869C4.27168 16.6047 4.10356 16.3159 3.95312 16.0218L5.22637 13.7814C5.07803 13.2142 5.00021 12.6139 5.00021 12.0002C5.00021 11.3749 5.08219 10.7688 5.23599 10.192L3.95351 7.936C4.10394 7.64191 4.27206 7.3531 4.45812 7.07091C4.64419 6.78873 4.84341 6.52043 5.05445 6.2663L7.60942 6.55327C8.26776 6.02075 9.01625 5.60683 9.84 5.33984M9.83614 5.33996L11 3.05493C11.3283 3.01863 11.662 3 12 3C12.338 3 12.6716 3.01863 13 3.05493L14.1638 5.33996C14.9882 5.60716 15.7389 6.01764 16.3976 6.55077L18.9275 6.26661C19.1385 6.52074 19.3377 6.78904 19.5238 7.07123C19.7098 7.35341 19.878 7.64223 20.0284 7.93632L18.7592 10.1697M18.7594 10.1732C18.9164 10.7556 19.0002 11.3681 19.0002 12.0002C19.0002 12.6215 18.9193 13.2239 18.7673 13.7974M15.0002 12.0002C15.0002 13.657 13.6571 15.0002 12.0002 15.0002C10.3433 15.0002 9.0002 13.657 9.0002 12.0002C9.0002 10.3433 10.3433 9.00015 12.0002 9.00015C13.6571 9.00015 15.0002 10.3433 15.0002 12.0002Z" stroke="#218380" stroke-width="2" stroke-linecap="round" stroke-linejoin="round">
	</path>
	</symbol>

	<symbol fill="none" xmlns="http://www.w3.org/2000/svg" viewBox="0 0 24 24" id="code">
		<path d="M9 8L5 11.6923L9 16M15 8L19 11.6923L15 16" stroke="#218380 " stroke-width="2" stroke-linecap="round" stroke-linejoin="round"></path>
	</symbol>
	<symbol fill="#218380 " xmlns="http://www.w3.org/2000/svg" viewBox="0 0 24 24" id="devops">
		<path d="M18,7a7.669,7.669,0,0,0-6,3.19A7.669,7.669,0,0,0,6,7C2.313,7,1,9.583,1,12c0,3.687,2.583,5,5,5a7.669,7.669,0,0,0,6-3.19A7.669,7.669,0,0,0,18,17c2.417,0,5-1.313,5-5C23,9.583,21.687,7,18,7ZM6,15a2.689,2.689,0,0,1-3-3A2.689,2.689,0,0,1,6,9c2.579,0,4.225,2.065,4.837,3C10.225,12.935,8.579,15,6,15Zm12,0c-2.579,0-4.225-2.065-4.837-3,.612-.935,2.258-3,4.837-3a2.689,2.689,0,0,1,3,3A2.689,2.689,0,0,1,18,15Z"></path>
	</symbol>
	<symbol fill="#218380 " version="1.1" xmlns="http://www.w3.org/2000/svg" viewBox="0 0 32 32" id="docker">
		<title>docker</title>
		<path d="M30.679 13.367c-0.613-0.404-1.366-0.645-2.175-0.645-0.093 0-0.185 0.003-0.276 0.009l0.012-0.001c-0.446 0.001-0.882 0.041-1.306 0.115l0.046-0.007c-0.235-1.357-1.025-2.495-2.122-3.191l-0.019-0.011-0.429-0.248-0.282 0.408c-0.336 0.512-0.599 1.108-0.756 1.745l-0.008 0.039c-0.089 0.324-0.14 0.696-0.14 1.080 0 0.831 0.24 1.605 0.654 2.258l-0.010-0.017c-0.637 0.299-1.381 0.488-2.164 0.524l-0.013 0h-19.729c-0.516 0.001-0.934 0.418-0.936 0.933v0c-0.001 0.056-0.001 0.123-0.001 0.19 0 1.751 0.317 3.428 0.897 4.977l-0.032-0.098c0.558 1.633 1.612 2.975 2.98 3.881l0.028 0.017c1.744 0.903 3.808 1.432 5.995 1.432 0.207 0 0.412-0.005 0.617-0.014l-0.029 0.001c0.018 0 0.039 0 0.060 0 1.272 0 2.515-0.121 3.72-0.352l-0.123 0.020c1.795-0.336 3.395-0.939 4.845-1.773l-0.074 0.039c1.257-0.735 2.331-1.621 3.245-2.652l0.012-0.014c1.325-1.56 2.403-3.381 3.145-5.365l0.041-0.125h0.276c0.055 0.002 0.119 0.004 0.183 0.004 1.226 0 2.34-0.481 3.163-1.265l-0.002 0.002c0.377-0.358 0.676-0.793 0.873-1.281l0.009-0.024 0.122-0.359zM3.79 14.849h2.646c0.127-0.001 0.23-0.104 0.23-0.231 0 0 0 0 0 0v0-2.355c0-0 0-0.001 0-0.001 0-0.127-0.103-0.23-0.23-0.231h-2.646c-0.127 0.001-0.23 0.104-0.23 0.231v0 2.356c0 0 0 0 0 0.001 0 0.127 0.103 0.23 0.23 0.23 0 0 0 0 0.001 0h-0zM7.434 14.849h2.644c0.127 0 0.231-0.103 0.231-0.231 0 0 0 0 0-0v0-2.355c0-0 0-0.001 0-0.001 0-0.127-0.103-0.23-0.23-0.231h-2.646c-0 0-0 0-0 0-0.128 0-0.232 0.104-0.232 0.232 0 0 0 0 0 0v0 2.355c0.001 0.128 0.104 0.231 0.232 0.231v0zM11.132 14.849h2.646c0.127-0.001 0.23-0.104 0.23-0.231 0 0 0 0 0 0v0-2.355c0-0 0-0.001 0-0.001 0-0.127-0.103-0.23-0.23-0.231h-2.646c-0.127 0.001-0.23 0.104-0.23 0.231v0 2.356c0 0.127 0.103 0.231 0.231 0.231v0zM14.788 14.849h2.643c0 0 0 0 0 0 0.128 0 0.231-0.103 0.232-0.231v-2.355c0-0 0-0 0-0 0-0.128-0.104-0.232-0.232-0.232-0 0-0 0-0 0h-2.643c-0.127 0-0.231 0.103-0.231 0.231v0 2.356c0 0 0 0 0 0.001 0 0.127 0.103 0.23 0.23 0.23 0 0 0 0 0.001 0h-0zM7.434 11.461h2.644c0.128-0.001 0.231-0.104 0.231-0.232 0 0 0 0 0 0v0-2.355c0 0 0 0 0-0 0-0.127-0.103-0.231-0.231-0.231h-2.644c-0.128 0-0.231 0.103-0.232 0.231v2.355c0.001 0.128 0.104 0.231 0.232 0.232h0zM11.132 11.461h2.646c0.127-0.001 0.23-0.105 0.23-0.232v0-2.355c0 0 0 0 0-0 0-0.127-0.103-0.231-0.231-0.231h-2.643c-0.127 0-0.231 0.103-0.231 0.231 0 0 0 0 0 0v0 2.355c0.001 0.128 0.103 0.231 0.231 0.232h0zM14.788 11.461h2.643c0.128-0.001 0.231-0.104 0.232-0.232v-2.355c-0.001-0.128-0.104-0.231-0.232-0.231h-2.643c-0.127 0-0.231 0.103-0.231 0.231 0 0 0 0 0 0v0 2.355c0 0.128 0.103 0.231 0.231 0.232h0zM14.788 8.073h2.643c0 0 0 0 0 0 0.128 0 0.232-0.104 0.232-0.232 0-0 0-0 0-0v0-2.356c-0.001-0.128-0.104-0.231-0.232-0.231 0 0-0 0-0 0h-2.643c-0.127 0-0.231 0.103-0.231 0.231v0 2.356c0 0 0 0 0 0.001 0 0.127 0.103 0.23 0.23 0.23 0 0 0 0 0.001 0h-0zM18.475 14.849h2.644c0 0 0 0 0 0 0.128 0 0.231-0.103 0.232-0.231v-2.355c0-0 0-0 0-0 0-0.128-0.104-0.232-0.232-0.232-0 0-0 0-0 0h-2.644c0 0 0 0-0 0-0.128 0-0.231 0.103-0.231 0.231v2.356c0 0.127 0.103 0.231 0.231 0.231v0z"></path>
	</symbol>
	<symbol xmlns="http://www.w3.org/2000/svg" viewBox="0 0 48 48" id="linux">
		<defs></defs>
		<path d="M27.08,17.1c2,2.9,3.35,10.33,3.35,13.62s.81,4.54,3.2,4.54,3.24-2.32,3.24-4.88c0-7.07-6.47-11.89-6.47-13.68,0-8.51-2-12.2-6.41-12.2-4.91,0-5.84,4.64-5.84,11.37,0,3.37-4.62,7.52-5.47,14.82"></path>
		<path d="M30.46,31.81c-1.52,1.82-1.54,6.81-1.54,8.55s.58,3.14,2.36,3.14c3.32,0,3.93-2.5,5-3.1s4-.81,4-2.75-3-1.29-3-3.53.13-2.5-.49-2.95"></path>
		<path d="M20.33,40.87a2.44,2.44,0,0,1-2.22,2.63c-2.39,0-3.74-1.8-4.85-1.8s-5.55-.05-5.55-2c0-.81.41-1,.41-1.92s-.41-1.46-.41-2.53,2-2,3.51-1.89c0,0,.11-2.89,2.45-2.89s2.15,3.62,3.57,5.06S20.33,37.51,20.33,40.87Z"></path>
		<path d="M20.25,39.72A9.43,9.43,0,0,0,29,38.17"></path>
		<path d="M19.65,42.76a25.62,25.62,0,0,1,9.5-.78"></path>
		<path d="M14.54,30.69c.93-4.56,5.14-9.81,5.14-12.94"></path>
		<path d="M23,12.47c1.56,0,5.11,2.1,5.11,3.33S23.52,19,22.72,19s-4.57-1.81-4.57-3.14S21.65,12.47,23,12.47Z"></path>
		<path d="M24.12,12.69a2.8,2.8,0,0,1-.13-.94c0-1.08.73-2.42,1.72-2.42s1.52,1.51,1.52,2.63a2.51,2.51,0,0,1-.9,1.82"></path>
		<path d="M22.41,12.57c0-.11,0-.25,0-.4,0-1.08-.65-2.42-1.53-2.42s-1.35,1.51-1.35,2.63a2.26,2.26,0,0,0,.32,1.4"></path>
	</symbol>
	<symbol  xmlns="http://www.w3.org/2000/svg" viewBox="0 0 24 24" id="sql">
		<path d="M4.25 7.00003C4.25 7.41424 4.58579 7.75003 5 7.75003C5.41421 7.75003 5.75 7.41424 5.75 7.00003H4.25ZM6.1 5.88903L5.81451 5.19549C5.80534 5.19927 5.79623 5.20323 5.78721 5.20737L6.1 5.88903ZM9.033 5.15203L9.10927 5.89814C9.11457 5.8976 9.11986 5.897 9.12515 5.89635L9.033 5.15203ZM11.533 5.00003L11.5317 5.75003H11.533V5.00003ZM12.466 5.00003V5.75003L12.4673 5.75003L12.466 5.00003ZM14.966 5.15203L14.8739 5.89635C14.8792 5.89701 14.8845 5.89761 14.8898 5.89815L14.966 5.15203ZM17.9 5.88903L18.2128 5.20737C18.2038 5.20322 18.1946 5.19926 18.1855 5.19548L17.9 5.88903ZM18.25 7.00003C18.25 7.41424 18.5858 7.75003 19 7.75003C19.4142 7.75003 19.75 7.41424 19.75 7.00003H18.25ZM5.75 7.00003C5.75 6.58582 5.41421 6.25003 5 6.25003C4.58579 6.25003 4.25 6.58582 4.25 7.00003H5.75ZM6.914 8.41403L6.69463 9.13123C6.70173 9.1334 6.70887 9.13547 6.71603 9.13743L6.914 8.41403ZM11.533 9.00003V8.24995L11.5219 8.25011L11.533 9.00003ZM12.466 9.00003L12.4771 8.25003H12.466V9.00003ZM17.086 8.41403L17.284 9.13743C17.2911 9.13547 17.2983 9.1334 17.3054 9.13123L17.086 8.41403ZM19.75 7.00003C19.75 6.58582 19.4142 6.25003 19 6.25003C18.5858 6.25003 18.25 6.58582 18.25 7.00003H19.75ZM5.75 7.00003C5.75 6.58582 5.41421 6.25003 5 6.25003C4.58579 6.25003 4.25 6.58582 4.25 7.00003H5.75ZM4.25 12C4.25 12.4142 4.58579 12.75 5 12.75C5.41421 12.75 5.75 12.4142 5.75 12H4.25ZM19.75 7.00003C19.75 6.58582 19.4142 6.25003 19 6.25003C18.5858 6.25003 18.25 6.58582 18.25 7.00003H19.75ZM18.25 12C18.25 12.4142 18.5858 12.75 19 12.75C19.4142 12.75 19.75 12.4142 19.75 12H18.25ZM5.75 12C5.75 11.5858 5.41421 11.25 5 11.25C4.58579 11.25 4.25 11.5858 4.25 12H5.75ZM6.914 13.414L6.69463 14.1312C6.70173 14.1334 6.70887 14.1355 6.71603 14.1374L6.914 13.414ZM11.533 14V13.2499L11.5219 13.2501L11.533 14ZM12.466 14L12.4771 13.25H12.466V14ZM17.086 13.414L17.284 14.1374C17.2911 14.1355 17.2983 14.1334 17.3054 14.1312L17.086 13.414ZM19.75 12C19.75 11.5858 19.4142 11.25 19 11.25C18.5858 11.25 18.25 11.5858 18.25 12H19.75ZM5.75 12C5.75 11.5858 5.41421 11.25 5 11.25C4.58579 11.25 4.25 11.5858 4.25 12H5.75ZM6.914 18.414L6.69463 19.1312C6.70173 19.1334 6.70887 19.1355 6.71603 19.1374L6.914 18.414ZM11.533 19V18.2499L11.5219 18.2501L11.533 19ZM12.466 19L12.4771 18.25H12.466V19ZM17.086 18.414L17.284 19.1374C17.2911 19.1355 17.2983 19.1334 17.3054 19.1312L17.086 18.414ZM19.75 12C19.75 11.5858 19.4142 11.25 19 11.25C18.5858 11.25 18.25 11.5858 18.25 12H19.75ZM5.75 7.00003C5.75 7.05846 5.71815 7.04218 5.81323 6.94645C5.91209 6.84693 6.09951 6.71444 6.41279 6.57069L5.78721 5.20737C5.38349 5.39262 5.02091 5.61563 4.74902 5.88936C4.47335 6.16688 4.25 6.5416 4.25 7.00003H5.75ZM6.38549 6.58257C7.25569 6.22436 8.1731 5.99384 9.10927 5.89814L8.95673 4.40592C7.87675 4.51631 6.8184 4.78225 5.81451 5.19549L6.38549 6.58257ZM9.12515 5.89635C9.9235 5.79751 10.7273 5.74864 11.5317 5.75003L11.5343 4.25003C10.6674 4.24854 9.80121 4.3012 8.94085 4.40771L9.12515 5.89635ZM11.533 5.75003H12.466V4.25003H11.533V5.75003ZM12.4673 5.75003C13.2717 5.74864 14.0755 5.79751 14.8739 5.89635L15.0581 4.40771C14.1978 4.3012 13.3316 4.24854 12.4647 4.25003L12.4673 5.75003ZM14.8898 5.89815C15.8263 5.99376 16.744 6.22428 17.6145 6.58258L18.1855 5.19548C17.1812 4.78214 16.1225 4.5162 15.0422 4.40591L14.8898 5.89815ZM17.5872 6.57069C17.9005 6.71444 18.0879 6.84693 18.1868 6.94645C18.2819 7.04218 18.25 7.05846 18.25 7.00003H19.75C19.75 6.5416 19.5266 6.16688 19.251 5.88936C18.9791 5.61563 18.6165 5.39262 18.2128 5.20737L17.5872 6.57069ZM4.25 7.00003C4.25 7.61363 4.646 8.06864 5.05149 8.36831C5.4717 8.67886 6.03924 8.93076 6.69463 9.13123L7.13337 7.69683C6.56276 7.52229 6.1733 7.3322 5.94301 7.162C5.698 6.98092 5.75 6.91643 5.75 7.00003H4.25ZM6.71603 9.13743C8.28853 9.56776 9.91391 9.77397 11.5441 9.74995L11.5219 8.25011C10.033 8.27205 8.54831 8.0837 7.11197 7.69063L6.71603 9.13743ZM11.533 9.75003H12.466V8.25003H11.533V9.75003ZM12.4549 9.74995C14.0854 9.77407 15.7111 9.56786 17.284 9.13743L16.888 7.69063C15.4514 8.08379 13.9664 8.27214 12.4771 8.25011L12.4549 9.74995ZM17.3054 9.13123C17.9605 8.93084 18.5281 8.67923 18.9484 8.3688C19.3542 8.069 19.75 7.61396 19.75 7.00003H18.25C18.25 6.9171 18.3018 6.98156 18.0571 7.16226C17.8269 7.33233 17.4375 7.52222 16.8666 7.69683L17.3054 9.13123ZM4.25 7.00003V12H5.75V7.00003H4.25ZM18.25 7.00003V12H19.75V7.00003H18.25ZM4.25 12C4.25 12.6136 4.646 13.0686 5.05149 13.3683C5.4717 13.6789 6.03924 13.9308 6.69463 14.1312L7.13337 12.6968C6.56276 12.5223 6.1733 12.3322 5.94301 12.162C5.698 11.9809 5.75 11.9164 5.75 12H4.25ZM6.71603 14.1374C8.28853 14.5678 9.91391 14.774 11.5441 14.7499L11.5219 13.2501C10.033 13.2721 8.54831 13.0837 7.11197 12.6906L6.71603 14.1374ZM11.533 14.75H12.466V13.25H11.533V14.75ZM12.4549 14.7499C14.0854 14.7741 15.7111 14.5679 17.284 14.1374L16.888 12.6906C15.4514 13.0838 13.9664 13.2721 12.4771 13.2501L12.4549 14.7499ZM17.3054 14.1312C17.9605 13.9308 18.5281 13.6792 18.9484 13.3688C19.3542 13.069 19.75 12.614 19.75 12H18.25C18.25 11.9171 18.3018 11.9816 18.0571 12.1623C17.8269 12.3323 17.4375 12.5222 16.8666 12.6968L17.3054 14.1312ZM4.25 12V17H5.75V12H4.25ZM4.25 17C4.25 17.6136 4.646 18.0686 5.05149 18.3683C5.4717 18.6789 6.03924 18.9308 6.69463 19.1312L7.13337 17.6968C6.56276 17.5223 6.1733 17.3322 5.94301 17.162C5.698 16.9809 5.75 16.9164 5.75 17H4.25ZM6.71603 19.1374C8.28853 19.5678 9.91391 19.774 11.5441 19.7499L11.5219 18.2501C10.033 18.2721 8.54831 18.0837 7.11197 17.6906L6.71603 19.1374ZM11.533 19.75H12.466V18.25H11.533V19.75ZM12.4549 19.7499C14.0854 19.7741 15.7111 19.5679 17.284 19.1374L16.888 17.6906C15.4514 18.0838 13.9664 18.2721 12.4771 18.2501L12.4549 19.7499ZM17.3054 19.1312C17.9608 18.9308 18.5283 18.6789 18.9485 18.3683C19.354 18.0686 19.75 17.6136 19.75 17H18.25C18.25 16.9164 18.302 16.9809 18.057 17.162C17.8267 17.3322 17.4372 17.5223 16.8666 17.6968L17.3054 19.1312ZM19.75 17V12H18.25V17H19.75Z" fill="#218380 "></path>
	</symbol>
	<symbol fill="none" xmlns="http://www.w3.org/2000/svg" viewBox="0 0 24 24" id="bash">
	<g id="System / Terminal">
		<path id="Vector" d="M17 15H12M7 10L10 12.5L7 15M3 15.8002V8.2002C3 7.08009 3 6.51962 3.21799 6.0918C3.40973 5.71547 3.71547 5.40973 4.0918 5.21799C4.51962 5 5.08009 5 6.2002 5H17.8002C18.9203 5 19.4796 5 19.9074 5.21799C20.2837 5.40973 20.5905 5.71547 20.7822 6.0918C21 6.5192 21 7.07899 21 8.19691V15.8031C21 16.921 21 17.48 20.7822 17.9074C20.5905 18.2837 20.2837 18.5905 19.9074 18.7822C19.48 19 18.921 19 17.8031 19H6.19691C5.07899 19 4.5192 19 4.0918 18.7822C3.71547 18.5905 3.40973 18.2837 3.21799 17.9074C3 17.4796 3 16.9203 3 15.8002Z" stroke="#218380" stroke-width="2" stroke-linecap="round" stroke-linejoin="round"></path>
	</g>
	</symbol>
	<symbol fill="#218380" xmlns="http://www.w3.org/2000/svg" viewBox="0 0 24 24" id="uncategorized">
		<path d="M18.6695 2H16.7695C14.5895 2 13.4395 3.15 13.4395 5.33V7.23C13.4395 9.41 14.5895 10.56 16.7695 10.56H18.6695C20.8495 10.56 21.9995 9.41 21.9995 7.23V5.33C21.9995 3.15 20.8495 2 18.6695 2Z" fill="#21838"></path>
		<path d="M7.24 13.4297H5.34C3.15 13.4297 2 14.5797 2 16.7597V18.6597C2 20.8497 3.15 21.9997 5.33 21.9997H7.23C9.41 21.9997 10.56 20.8497 10.56 18.6697V16.7697C10.57 14.5797 9.42 13.4297 7.24 13.4297Z" fill="#218380"></path>
		<path d="M6.29 10.58C8.6593 10.58 10.58 8.6593 10.58 6.29C10.58 3.9207 8.6593 2 6.29 2C3.9207 2 2 3.9207 2 6.29C2 8.6593 3.9207 10.58 6.29 10.58Z" fill="#218380"></path>
		<path d="M17.7099 22.0019C20.0792 22.0019 21.9999 20.0812 21.9999 17.7119C21.9999 15.3426 20.0792 13.4219 17.7099 13.4219C15.3406 13.4219 13.4199 15.3426 13.4199 17.7119C13.4199 20.0812 15.3406 22.0019 17.7099 22.0019Z" fill="#218380"></path>
	</symbol>
</svg>